<mxfile host="app.diagrams.net" modified="2024-04-17T19:20:29.098Z" agent="Mozilla/5.0 (Windows NT 10.0; Win64; x64) AppleWebKit/537.36 (KHTML, like Gecko) Chrome/123.0.0.0 Safari/537.36" etag="uFq06rnB4MkiRMPj3B3C" version="24.2.5" type="device">
  <diagram name="PÃ¡gina-1" id="wMNAZJh_d14xe4Y8AmAw">
    <mxGraphModel dx="880" dy="468" grid="1" gridSize="10" guides="1" tooltips="1" connect="1" arrows="1" fold="1" page="1" pageScale="1" pageWidth="827" pageHeight="1169" math="0" shadow="0">
      <root>
        <mxCell id="0" />
        <mxCell id="1" parent="0" />
        <mxCell id="9o-0UjJXHgFAT-2_vMkz-2" value="leciona" style="shape=rhombus;perimeter=rhombusPerimeter;whiteSpace=wrap;html=1;align=center;" vertex="1" parent="1">
          <mxGeometry x="320" y="90" width="120" height="60" as="geometry" />
        </mxCell>
        <mxCell id="9o-0UjJXHgFAT-2_vMkz-6" style="edgeStyle=orthogonalEdgeStyle;rounded=0;orthogonalLoop=1;jettySize=auto;html=1;entryX=0;entryY=0.5;entryDx=0;entryDy=0;" edge="1" parent="1" source="9o-0UjJXHgFAT-2_vMkz-3" target="9o-0UjJXHgFAT-2_vMkz-2">
          <mxGeometry relative="1" as="geometry" />
        </mxCell>
        <mxCell id="9o-0UjJXHgFAT-2_vMkz-3" value="professor" style="whiteSpace=wrap;html=1;align=center;" vertex="1" parent="1">
          <mxGeometry x="150" y="100" width="100" height="40" as="geometry" />
        </mxCell>
        <mxCell id="9o-0UjJXHgFAT-2_vMkz-5" style="edgeStyle=orthogonalEdgeStyle;rounded=0;orthogonalLoop=1;jettySize=auto;html=1;entryX=1;entryY=0.5;entryDx=0;entryDy=0;" edge="1" parent="1" source="9o-0UjJXHgFAT-2_vMkz-4" target="9o-0UjJXHgFAT-2_vMkz-2">
          <mxGeometry relative="1" as="geometry" />
        </mxCell>
        <mxCell id="9o-0UjJXHgFAT-2_vMkz-20" style="edgeStyle=orthogonalEdgeStyle;rounded=0;orthogonalLoop=1;jettySize=auto;html=1;entryX=0.5;entryY=0;entryDx=0;entryDy=0;" edge="1" parent="1" source="9o-0UjJXHgFAT-2_vMkz-4" target="9o-0UjJXHgFAT-2_vMkz-19">
          <mxGeometry relative="1" as="geometry" />
        </mxCell>
        <mxCell id="9o-0UjJXHgFAT-2_vMkz-4" value="disciplina" style="whiteSpace=wrap;html=1;align=center;" vertex="1" parent="1">
          <mxGeometry x="510" y="100" width="100" height="40" as="geometry" />
        </mxCell>
        <mxCell id="9o-0UjJXHgFAT-2_vMkz-7" value="nome" style="ellipse;whiteSpace=wrap;html=1;align=center;" vertex="1" parent="1">
          <mxGeometry x="30" y="30" width="100" height="40" as="geometry" />
        </mxCell>
        <mxCell id="9o-0UjJXHgFAT-2_vMkz-8" style="edgeStyle=orthogonalEdgeStyle;rounded=0;orthogonalLoop=1;jettySize=auto;html=1;entryX=0.14;entryY=0.025;entryDx=0;entryDy=0;entryPerimeter=0;" edge="1" parent="1" source="9o-0UjJXHgFAT-2_vMkz-7" target="9o-0UjJXHgFAT-2_vMkz-3">
          <mxGeometry relative="1" as="geometry" />
        </mxCell>
        <mxCell id="9o-0UjJXHgFAT-2_vMkz-9" value="cpf" style="ellipse;whiteSpace=wrap;html=1;align=center;fontStyle=4;" vertex="1" parent="1">
          <mxGeometry x="170" y="20" width="100" height="40" as="geometry" />
        </mxCell>
        <mxCell id="9o-0UjJXHgFAT-2_vMkz-10" style="edgeStyle=orthogonalEdgeStyle;rounded=0;orthogonalLoop=1;jettySize=auto;html=1;entryX=0.6;entryY=0.075;entryDx=0;entryDy=0;entryPerimeter=0;" edge="1" parent="1" source="9o-0UjJXHgFAT-2_vMkz-9" target="9o-0UjJXHgFAT-2_vMkz-3">
          <mxGeometry relative="1" as="geometry" />
        </mxCell>
        <mxCell id="9o-0UjJXHgFAT-2_vMkz-12" style="edgeStyle=orthogonalEdgeStyle;rounded=0;orthogonalLoop=1;jettySize=auto;html=1;entryX=0;entryY=0.5;entryDx=0;entryDy=0;" edge="1" parent="1" source="9o-0UjJXHgFAT-2_vMkz-11" target="9o-0UjJXHgFAT-2_vMkz-3">
          <mxGeometry relative="1" as="geometry" />
        </mxCell>
        <mxCell id="9o-0UjJXHgFAT-2_vMkz-11" value="telefone" style="ellipse;shape=doubleEllipse;margin=3;whiteSpace=wrap;html=1;align=center;" vertex="1" parent="1">
          <mxGeometry y="110" width="100" height="40" as="geometry" />
        </mxCell>
        <mxCell id="9o-0UjJXHgFAT-2_vMkz-13" value="nome" style="ellipse;whiteSpace=wrap;html=1;align=center;" vertex="1" parent="1">
          <mxGeometry x="640" y="50" width="100" height="40" as="geometry" />
        </mxCell>
        <mxCell id="9o-0UjJXHgFAT-2_vMkz-14" style="edgeStyle=orthogonalEdgeStyle;rounded=0;orthogonalLoop=1;jettySize=auto;html=1;entryX=0.94;entryY=0.025;entryDx=0;entryDy=0;entryPerimeter=0;" edge="1" parent="1" source="9o-0UjJXHgFAT-2_vMkz-13" target="9o-0UjJXHgFAT-2_vMkz-4">
          <mxGeometry relative="1" as="geometry" />
        </mxCell>
        <mxCell id="9o-0UjJXHgFAT-2_vMkz-16" style="edgeStyle=orthogonalEdgeStyle;rounded=0;orthogonalLoop=1;jettySize=auto;html=1;entryX=1;entryY=0.5;entryDx=0;entryDy=0;" edge="1" parent="1" source="9o-0UjJXHgFAT-2_vMkz-15" target="9o-0UjJXHgFAT-2_vMkz-4">
          <mxGeometry relative="1" as="geometry" />
        </mxCell>
        <mxCell id="9o-0UjJXHgFAT-2_vMkz-15" value="nraulas" style="ellipse;whiteSpace=wrap;html=1;align=center;" vertex="1" parent="1">
          <mxGeometry x="650" y="100" width="100" height="40" as="geometry" />
        </mxCell>
        <mxCell id="9o-0UjJXHgFAT-2_vMkz-17" value="codigo" style="ellipse;whiteSpace=wrap;html=1;align=center;fontStyle=4;" vertex="1" parent="1">
          <mxGeometry x="500" y="10" width="100" height="40" as="geometry" />
        </mxCell>
        <mxCell id="9o-0UjJXHgFAT-2_vMkz-18" style="edgeStyle=orthogonalEdgeStyle;rounded=0;orthogonalLoop=1;jettySize=auto;html=1;entryX=0.37;entryY=0.075;entryDx=0;entryDy=0;entryPerimeter=0;" edge="1" parent="1" source="9o-0UjJXHgFAT-2_vMkz-17" target="9o-0UjJXHgFAT-2_vMkz-4">
          <mxGeometry relative="1" as="geometry" />
        </mxCell>
        <mxCell id="9o-0UjJXHgFAT-2_vMkz-19" value="pertence" style="shape=rhombus;perimeter=rhombusPerimeter;whiteSpace=wrap;html=1;align=center;" vertex="1" parent="1">
          <mxGeometry x="500" y="190" width="120" height="60" as="geometry" />
        </mxCell>
        <mxCell id="9o-0UjJXHgFAT-2_vMkz-22" style="edgeStyle=orthogonalEdgeStyle;rounded=0;orthogonalLoop=1;jettySize=auto;html=1;entryX=0.5;entryY=1;entryDx=0;entryDy=0;" edge="1" parent="1" source="9o-0UjJXHgFAT-2_vMkz-21" target="9o-0UjJXHgFAT-2_vMkz-19">
          <mxGeometry relative="1" as="geometry" />
        </mxCell>
        <mxCell id="9o-0UjJXHgFAT-2_vMkz-21" value="curso" style="whiteSpace=wrap;html=1;align=center;" vertex="1" parent="1">
          <mxGeometry x="510" y="310" width="100" height="40" as="geometry" />
        </mxCell>
        <mxCell id="9o-0UjJXHgFAT-2_vMkz-23" value="nome" style="ellipse;whiteSpace=wrap;html=1;align=center;" vertex="1" parent="1">
          <mxGeometry x="620" y="370" width="100" height="40" as="geometry" />
        </mxCell>
        <mxCell id="9o-0UjJXHgFAT-2_vMkz-24" style="edgeStyle=orthogonalEdgeStyle;rounded=0;orthogonalLoop=1;jettySize=auto;html=1;entryX=0.85;entryY=1.025;entryDx=0;entryDy=0;entryPerimeter=0;" edge="1" parent="1" source="9o-0UjJXHgFAT-2_vMkz-23" target="9o-0UjJXHgFAT-2_vMkz-21">
          <mxGeometry relative="1" as="geometry" />
        </mxCell>
        <mxCell id="9o-0UjJXHgFAT-2_vMkz-26" style="edgeStyle=orthogonalEdgeStyle;rounded=0;orthogonalLoop=1;jettySize=auto;html=1;" edge="1" parent="1" source="9o-0UjJXHgFAT-2_vMkz-25" target="9o-0UjJXHgFAT-2_vMkz-21">
          <mxGeometry relative="1" as="geometry" />
        </mxCell>
        <mxCell id="9o-0UjJXHgFAT-2_vMkz-25" value="codigo" style="ellipse;whiteSpace=wrap;html=1;align=center;fontStyle=4;" vertex="1" parent="1">
          <mxGeometry x="640" y="290" width="100" height="40" as="geometry" />
        </mxCell>
        <mxCell id="9o-0UjJXHgFAT-2_vMkz-28" value="N" style="text;strokeColor=none;fillColor=none;spacingLeft=4;spacingRight=4;overflow=hidden;rotatable=0;points=[[0,0.5],[1,0.5]];portConstraint=eastwest;fontSize=12;whiteSpace=wrap;html=1;fontColor=#ff0000;" vertex="1" parent="1">
          <mxGeometry x="570" y="140" width="40" height="30" as="geometry" />
        </mxCell>
        <mxCell id="9o-0UjJXHgFAT-2_vMkz-29" value="N" style="text;strokeColor=none;fillColor=none;spacingLeft=4;spacingRight=4;overflow=hidden;rotatable=0;points=[[0,0.5],[1,0.5]];portConstraint=eastwest;fontSize=12;whiteSpace=wrap;html=1;fontColor=#ff0000;" vertex="1" parent="1">
          <mxGeometry x="480" y="90" width="40" height="30" as="geometry" />
        </mxCell>
        <mxCell id="9o-0UjJXHgFAT-2_vMkz-30" value="N" style="text;strokeColor=none;fillColor=none;spacingLeft=4;spacingRight=4;overflow=hidden;rotatable=0;points=[[0,0.5],[1,0.5]];portConstraint=eastwest;fontSize=12;whiteSpace=wrap;html=1;fontColor=#ff0000;" vertex="1" parent="1">
          <mxGeometry x="250" y="90" width="40" height="30" as="geometry" />
        </mxCell>
        <mxCell id="9o-0UjJXHgFAT-2_vMkz-31" value="N" style="text;strokeColor=none;fillColor=none;spacingLeft=4;spacingRight=4;overflow=hidden;rotatable=0;points=[[0,0.5],[1,0.5]];portConstraint=eastwest;fontSize=12;whiteSpace=wrap;html=1;fontColor=#ff0000;" vertex="1" parent="1">
          <mxGeometry x="570" y="280" width="40" height="30" as="geometry" />
        </mxCell>
      </root>
    </mxGraphModel>
  </diagram>
</mxfile>
